<svg width="110" height="30" viewBox="0 0 110 30" xmlns="http://www.w3.org/2000/svg">
  <!-- 波形バー -->
  <g fill="#2196f3">
    <rect x="5" y="10" width="2" height="10" rx="1"/>
    <rect x="10" y="7" width="2" height="16" rx="1"/>
    <rect x="15" y="4" width="2" height="22" rx="1"/>
    <rect x="20" y="8" width="2" height="14" rx="1"/>
    <rect x="25" y="6" width="2" height="18" rx="1"/>
    <rect x="30" y="3" width="2" height="24" rx="1"/>
    <rect x="35" y="9" width="2" height="12" rx="1"/>
    <rect x="40" y="5" width="2" height="20" rx="1"/>
    <rect x="45" y="8" width="2" height="14" rx="1"/>
    <rect x="50" y="2" width="2" height="26" rx="1"/>
    <rect x="55" y="7" width="2" height="16" rx="1"/>
    <rect x="60" y="10" width="2" height="10" rx="1"/>
    <rect x="65" y="6" width="2" height="18" rx="1"/>
    <rect x="70" y="4" width="2" height="22" rx="1"/>
    <rect x="75" y="8" width="2" height="14" rx="1"/>
    <rect x="80" y="1" width="2" height="28" rx="1"/>
    <rect x="85" y="9" width="2" height="12" rx="1"/>
    <rect x="90" y="5" width="2" height="20" rx="1"/>
    <rect x="95" y="7" width="2" height="16" rx="1"/>
    <rect x="100" y="10" width="2" height="10" rx="1"/>
    <rect x="105" y="6" width="2" height="18" rx="1"/>
  </g>
</svg>